<svg width="300" height="300" xmlns="http://www.w3.org/2000/svg">
  <g id="svg_1">
  	//head
  	<circle cx="150" cy="150" r="60" stroke-width="2" fill="yellow" id="svg_2"/>
  	
  	//hair
  	<line x1="150" y1="90" x2="150" y2="60" stroke="brown" stroke-width="3"/>
  	<line x1="150" y1="90" x2="130" y2="65" stroke="brown" stroke-width="3"/>
  	<line x1="150" y1="90" x2="170" y2="65" stroke="brown" stroke-width="3"/>
  	<line x1="150" y1="90" x2="110" y2="70" stroke="brown" stroke-width="3"/>
  	<line x1="150" y1="90" x2="190" y2="70" stroke="brown" stroke-width="3"/>
  
  	//eyebrows
  	<line x1="110" y1="110" x2="130" y2="125" stroke="black" stroke-width="4"/>
  	<line x1="165" y1="125" x2="185" y2="110" stroke="black" stroke-width="4"/>
  
  	//eyes   
   <circle cx="120" cy="130" r="5" stroke-width="2" fill="black" id="svg_3"/>
   <line x1="165" y1="135" x2="185" y2="130" stroke="black" stroke-width="2"/>
   
   //mouth
   <line x1="120" y1="175" x2="140" y2="185" stroke="black" stroke-width="2"/>
   <line x1="140" y1="185" x2="160" y2="185" stroke="black" stroke-width="2"/>
   <line x1="160" y1="185" x2="180" y2="175" stroke="black" stroke-width="2"/>
   
   //mustache
   <line x1="150" y1="190" x2="150" y2="205" stroke="brown" stroke-width="2"/>
   <line x1="153" y1="190" x2="153" y2="205" stroke="brown" stroke-width="2"/>
   <line x1="147" y1="190" x2="147" y2="205" stroke="brown" stroke-width="2"/>
   
  </g>
</svg>